# xmcd
#
# Track frame offsets:
#	150
#	13962
#	29347
#	45849
#	62042
#	79630
#	97601
#	116852
#	132049
#	148188
#	162854
#
# Disc length: 2374 seconds
#
# Revision: 2
# Processed by: cddbd v1.5.1PL0 Copyright (c) Steve Scherf et al.
# Submitted via: audiograbber 1.83.01
#
DISCID=8609440b
DTITLE=Erika Jo - Erika Jo
DYEAR=2005
DGENRE=Country
TTITLE0=I Break Things
TTITLE1=Who You Are
TTITLE2=There Are No Accidents
TTITLE3=Go
TTITLE4=Strong Tonight
TTITLE5=Good Day For Goodbye
TTITLE6=Wish You Back To Me
TTITLE7=They Say Love Is Blind
TTITLE8=Going 'Til You're Gone
TTITLE9=Love Is
TTITLE10=I'm Not Lisa
EXTD=
EXTT0=
EXTT1=
EXTT2=
EXTT3=
EXTT4=
EXTT5=
EXTT6=
EXTT7=
EXTT8=
EXTT9=
EXTT10=
PLAYORDER=
